<?xml version="1.0" encoding="utf-8"?>
<!-- Generator: Adobe Illustrator 15.1.0, SVG Export Plug-In . SVG Version: 6.00 Build 0)  -->
<!DOCTYPE svg PUBLIC "-//W3C//DTD SVG 1.1//EN" "http://www.w3.org/Graphics/SVG/1.1/DTD/svg11.dtd">
<svg version="1.1" id="Layer_1" xmlns="http://www.w3.org/2000/svg" xmlns:xlink="http://www.w3.org/1999/xlink" x="0px" y="0px"
	 width="504px" height="504px" viewBox="0 0 504 504" enable-background="new 0 0 504 504" xml:space="preserve">
<g>
	<path fill="#221E1F" d="M172.421,121.984c49.238-31.517,107.823-33.882,158.066-6.86l-44.473,46.212l129.818-14.719V26.125
		L371.3,72.73c-71.837-45.266-157.882-45.003-229.869,1.2C68.216,121.209,32.195,202.183,46.119,288.207l56.568-8.912
		C92.204,216.145,118.994,156.853,172.421,121.984z"/>
	<path fill="#221E1F" d="M457.882,215.792l-56.605,8.911c10.479,63.169-15.854,122.445-69.697,157.308
		c-49.318,31.57-107.702,33.893-158.237,7.029l44.606-46.381L88.542,357.383l-0.378,120.492l44.512-46.23
		c71.869,44.891,157.91,44.627,229.855-1.574C435.784,382.791,471.806,301.816,457.882,215.792z"/>
</g>
</svg>
