<svg xmlns="http://www.w3.org/2000/svg" width="504" height="504" viewBox="0 0 504 504"><g fill="#221E1F"><path d="M172.421 121.984c49.238-31.517 107.823-33.882 158.066-6.86l-44.473 46.212 129.818-14.719V26.125L371.3 72.73c-71.837-45.266-157.882-45.003-229.869 1.2-73.215 47.279-109.236 128.253-95.312 214.277l56.568-8.912c-10.483-63.15 16.307-122.442 69.734-157.311zM457.882 215.792l-56.605 8.911c10.479 63.169-15.854 122.445-69.697 157.308-49.318 31.57-107.702 33.893-158.237 7.029l44.606-46.381-129.407 14.724-.378 120.492 44.512-46.23c71.869 44.891 157.91 44.627 229.855-1.574 73.253-47.28 109.275-128.255 95.351-214.279z"/></g></svg>